<?xml version="1.0" encoding="UTF-8"?>
<svg width="70px" height="70px" viewBox="0 0 70 70" version="1.1" xmlns="http://www.w3.org/2000/svg" xmlns:xlink="http://www.w3.org/1999/xlink">
    <!-- Generator: Sketch 55.2 (78181) - https://sketchapp.com -->
    <title>Group 5</title>
    <desc>Created with Sketch.</desc>
    <defs>
        <rect id="path-1" x="0" y="0" width="52" height="52" rx="8"></rect>
        <filter x="-27.9%" y="-24.0%" width="155.8%" height="155.8%" filterUnits="objectBoundingBox" id="filter-2">
            <feMorphology radius="1" operator="dilate" in="SourceAlpha" result="shadowSpreadOuter1"></feMorphology>
            <feOffset dx="0" dy="2" in="shadowSpreadOuter1" result="shadowOffsetOuter1"></feOffset>
            <feGaussianBlur stdDeviation="3.5" in="shadowOffsetOuter1" result="shadowBlurOuter1"></feGaussianBlur>
            <feColorMatrix values="0 0 0 0 0   0 0 0 0 0   0 0 0 0 0  0 0 0 0.354102928 0" type="matrix" in="shadowBlurOuter1"></feColorMatrix>
        </filter>
    </defs>
    <g id="Page-1" stroke="none" stroke-width="1" fill="none" fill-rule="evenodd">
        <g id="Group-5" transform="translate(9.000000, 7.000000)">
            <g id="Rectangle">
                <use fill="black" fill-opacity="1" filter="url(#filter-2)" xlink:href="#path-1"></use>
                <use fill="#FFFFFF" fill-rule="evenodd" xlink:href="#path-1"></use>
            </g>
            <path d="M39.0239411,10.4 L12.9760589,10.4 C10.5914328,10.4 8.66666667,12.3002964 8.66666667,14.6546066 L8.66666667,31.6730331 C8.66666667,34.0271542 10.5914328,35.9276397 12.9760589,35.9276397 L14.412523,35.9276397 L14.412523,40.1822464 C14.412523,41.2068502 15.4870939,41.9488536 16.5384899,41.4302643 C16.5672192,41.4019003 16.6247735,41.4019003 16.6535028,41.3734417 C24.5555875,36.1416937 22.7846188,37.3082123 24.5540552,36.1544575 C24.7837937,36.0126373 25.0423573,35.9276397 25.3296501,35.9276397 L39.0239411,35.9276397 C41.4085672,35.9276397 43.3333333,34.0271542 43.3333333,31.6730331 L43.3333333,14.6546066 C43.3333333,12.3002964 41.4085672,10.4 39.0239411,10.4 Z M35.4423573,27.4184265 L23.759116,27.4184265 C21.8655691,27.4184265 21.8578122,24.5820221 23.759116,24.5820221 L35.4423573,24.5820221 C37.3359042,24.5820221 37.3436611,27.4184265 35.4423573,27.4184265 Z M36.1510129,21.7456177 L15.8489871,21.7456177 C13.9554401,21.7456177 13.9476832,18.9092132 15.8489871,18.9092132 L36.1510129,18.9092132 C38.0445599,18.9092132 38.0523168,21.7456177 36.1510129,21.7456177 Z" id="Shape" fill="#6897CD" fill-rule="nonzero" transform="translate(26.000000, 26.000000) scale(-1, 1) translate(-26.000000, -26.000000) "></path>
        </g>
    </g>
</svg>