<?xml version="1.0" standalone="no"?>
<!DOCTYPE svg PUBLIC "-//W3C//DTD SVG 20010904//EN"
 "http://www.w3.org/TR/2001/REC-SVG-20010904/DTD/svg10.dtd">
<svg version="1.0" xmlns="http://www.w3.org/2000/svg"
 width="512.000000pt" height="512.000000pt" viewBox="0 0 512.000000 512.000000"
 preserveAspectRatio="xMidYMid meet">
<metadata>
Created by potrace 1.11, written by Peter Selinger 2001-2013
</metadata>
<g transform="translate(0.000000,512.000000) scale(0.100000,-0.100000)"
fill="#000000" stroke="none">
<path d="M1550 3866 c-121 -34 -218 -116 -271 -229 l-34 -72 0 -740 0 -740 23
-57 c25 -63 104 -157 162 -192 19 -12 61 -33 93 -45 l57 -23 0 -257 c0 -238 1
-258 20 -288 16 -28 26 -33 56 -33 35 0 53 15 324 285 162 162 295 286 306
286 10 1 280 1 599 0 350 -1 610 2 657 8 141 19 247 83 319 193 72 111 70 98
67 888 -4 787 1 736 -76 850 -44 64 -115 121 -192 153 l-55 22 -1005 2 c-783
1 -1015 -1 -1050 -11z m2020 -157 c67 -14 128 -62 165 -129 l30 -55 0 -700 0
-700 -27 -50 c-33 -63 -70 -98 -133 -127 l-50 -23 -660 -1 c-486 0 -668 -4
-689 -13 -16 -6 -126 -108 -245 -226 l-216 -215 -5 209 c-6 241 -2 232 -103
250 -71 13 -151 55 -184 98 -53 69 -53 73 -53 798 0 762 -2 739 74 814 87 85
24 80 1098 81 648 0 963 -3 998 -11z"/>
<path d="M2440 3414 c-263 -51 -486 -199 -667 -444 -73 -99 -89 -150 -72 -230
28 -132 258 -374 460 -484 313 -171 634 -133 939 111 85 68 98 89 79 125 -32
59 -68 61 -134 7 -174 -144 -328 -209 -499 -209 -186 0 -380 93 -551 264 -88
88 -142 160 -155 208 -15 52 24 120 134 236 168 176 381 283 565 284 234 1
482 -141 659 -375 62 -83 69 -112 46 -177 -22 -61 -12 -100 28 -114 42 -15 76
6 100 61 27 61 28 164 3 213 -56 111 -223 287 -353 374 -86 57 -198 110 -277
132 -58 16 -255 27 -305 18z"/>
<path d="M2450 3144 c-109 -29 -199 -106 -248 -212 -23 -49 -27 -70 -27 -147
0 -82 3 -97 33 -157 74 -150 244 -240 402 -210 236 44 369 260 300 486 -16 51
-33 79 -77 126 -105 114 -237 153 -383 114z m187 -139 c61 -26 104 -65 129
-119 74 -159 -41 -337 -218 -336 -161 1 -277 163 -224 313 45 124 194 192 313
142z"/>
<path d="M2505 2901 c-43 -19 -70 -60 -70 -108 0 -39 5 -49 37 -79 47 -43 93
-46 137 -9 42 36 56 84 38 127 -8 18 -23 41 -34 51 -24 21 -80 30 -108 18z"/>
</g>
</svg>
